<svg width="24" height="25" viewBox="0 0 24 25" fill="none" xmlns="http://www.w3.org/2000/svg">
<rect y="0.5" width="24" height="24" rx="12" fill="#DC2626"/>
<path d="M12 5.5C13.8565 5.5 15.637 6.2375 16.9497 7.55025C18.2625 8.86301 19 10.6435 19 12.5C19 14.3565 18.2625 16.137 16.9497 17.4497C15.637 18.7625 13.8565 19.5 12 19.5C10.1435 19.5 8.36301 18.7625 7.05025 17.4497C5.7375 16.137 5 14.3565 5 12.5C5 10.6435 5.7375 8.86301 7.05025 7.55025C8.36301 6.2375 10.1435 5.5 12 5.5ZM12 18.5C13.5913 18.5 15.1174 17.8679 16.2426 16.7426C17.3679 15.6174 18 14.0913 18 12.5C18 10.9087 17.3679 9.38258 16.2426 8.25736C15.1174 7.13214 13.5913 6.5 12 6.5C10.4087 6.5 8.88258 7.13214 7.75736 8.25736C6.63214 9.38258 6 10.9087 6 12.5C6 14.0913 6.63214 15.6174 7.75736 16.7426C8.88258 17.8679 10.4087 18.5 12 18.5ZM12.75 15.75C12.75 15.9489 12.671 16.1397 12.5303 16.2803C12.3897 16.421 12.1989 16.5 12 16.5C11.8011 16.5 11.6103 16.421 11.4697 16.2803C11.329 16.1397 11.25 15.9489 11.25 15.75C11.25 15.5511 11.329 15.3603 11.4697 15.2197C11.6103 15.079 11.8011 15 12 15C12.1989 15 12.3897 15.079 12.5303 15.2197C12.671 15.3603 12.75 15.5511 12.75 15.75ZM12 8.5C12.1326 8.5 12.2598 8.55268 12.3536 8.64645C12.4473 8.74021 12.5 8.86739 12.5 9V13.5C12.5 13.6326 12.4473 13.7598 12.3536 13.8536C12.2598 13.9473 12.1326 14 12 14C11.8674 14 11.7402 13.9473 11.6464 13.8536C11.5527 13.7598 11.5 13.6326 11.5 13.5V9C11.5 8.86739 11.5527 8.74021 11.6464 8.64645C11.7402 8.55268 11.8674 8.5 12 8.5Z" fill="#F6F6F9"/>
</svg>
